<svg xmlns="http://www.w3.org/2000/svg" width="206.666" height="50.576" viewBox="0 0 206.666 50.576">
  <g id="Group_291" data-name="Group 291" transform="translate(-560.809 -24.936)">
    <g id="Group_287" data-name="Group 287">
      <path id="Path_452" data-name="Path 452" d="M601.169,25.773H611.8v48.9H601.169l-.921-5.777a20.977,20.977,0,0,1-15.239,6.614c-13.314,0-24.2-11.053-24.2-25.288,0-14.318,10.886-25.288,24.2-25.288a20.977,20.977,0,0,1,15.239,6.614Zm-1.758,24.451a12.979,12.979,0,1,0-25.958,0,12.979,12.979,0,1,0,25.958,0" fill="#8ff129"/>
    </g>
    <g id="Group_288" data-name="Group 288">
      <path id="Path_453" data-name="Path 453" d="M653,25.6V38.249a30.371,30.371,0,0,0-4.605-.418c-7.956,0-11.974,4.772-11.974,12.058V74.675H623.946v-48.9h10.467l1.005,6.282a19.216,19.216,0,0,1,14.572-6.7A18.253,18.253,0,0,1,653,25.6" fill="#8ff129"/>
    </g>
    <g id="Group_289" data-name="Group 289">
      <path id="Path_454" data-name="Path 454" d="M696.465,25.773H707.1v48.9H696.465l-.921-5.777a20.979,20.979,0,0,1-15.24,6.614c-13.316,0-24.2-11.053-24.2-25.288,0-14.318,10.884-25.288,24.2-25.288a20.979,20.979,0,0,1,15.24,6.614Zm-1.759,24.451a12.979,12.979,0,1,0-25.958,0,12.979,12.979,0,1,0,25.958,0" fill="#8ff129"/>
    </g>
    <g id="Group_290" data-name="Group 290">
      <path id="Path_455" data-name="Path 455" d="M756.84,25.773h10.635v48.9H756.84l-.921-5.777a20.977,20.977,0,0,1-15.239,6.614c-13.316,0-24.2-11.053-24.2-25.288,0-14.318,10.884-25.288,24.2-25.288a20.977,20.977,0,0,1,15.239,6.614Zm-1.758,24.451a12.979,12.979,0,1,0-25.958,0,12.979,12.979,0,1,0,25.958,0" fill="#8ff129"/>
    </g>
  </g>
</svg>
